<?xml version="1.0" encoding="UTF-8"?>
<svg width="161px" height="61px" viewBox="0 0 161 61" version="1.1" xmlns="http://www.w3.org/2000/svg" xmlns:xlink="http://www.w3.org/1999/xlink">
    <title>diversitech</title>
    <g id="Page-1" stroke="none" stroke-width="1" fill="none" fill-rule="evenodd">
        <g id="diversitech" fill-rule="nonzero">
            <polygon id="Path" fill="#E71E15" points="160.839268 19.6093178 96.5464226 60.3549085 136.059734 19.3682196 119.611481 0.214309484"></polygon>
            <g id="Group" transform="translate(0.000000, 1.339434)" fill="#000000">
                <path d="M5.33094842,4.76838602 L6.26855241,4.76838602 C7.07221298,4.76838602 7.20615641,5.83993344 7.20615641,6.61680532 L7.20615641,22.9043261 C7.20615641,23.681198 7.09900166,24.7527454 6.26855241,24.7527454 L5.33094842,24.7527454 L5.33094842,4.76838602 Z M0.107154742,28.7442596 L6.26855241,28.7442596 C9.48319468,28.7442596 12.4299501,27.3780366 12.4299501,23.6276206 L12.4299501,5.86672213 C12.4299501,2.11630616 9.50998336,0.750083195 6.26855241,0.750083195 L0.107154742,0.750083195 L0.107154742,28.7442596 Z" id="Shape"></path>
                <rect id="Rectangle" x="14.7069884" y="6.02745424" width="4.76838602" height="22.7168053"></rect>
                <polygon id="Path" points="26.065391 6.02745424 21.1362729 6.02745424 23.9758735 28.7442596 30.2980033 28.7442596 33.5126456 6.02745424 29.2264559 6.02745424 27.4584027 24.618802 27.4048253 24.618802"></polygon>
                <polygon id="Path" points="43.8798669 28.7442596 43.8798669 25.5028286 39.6204659 25.5028286 39.6204659 17.7341098 43.6923461 17.7341098 43.6923461 14.4926789 39.6204659 14.4926789 39.6204659 9.29567388 43.8798669 9.29567388 43.8798669 6.02745424 34.7449251 6.02745424 34.7449251 28.7442596"></polygon>
                <path d="M50.7109817,9.29567388 L51.3003328,9.29567388 C52.1039933,9.29567388 52.4522463,9.64392679 52.4522463,10.7422629 L52.4522463,14.0908486 C52.4522463,15.1891847 52.1039933,15.5374376 51.3003328,15.5374376 L50.7109817,15.5374376 L50.7109817,9.29567388 Z M50.7109817,28.7442596 L50.7109817,18.1091514 C52.4790349,18.1091514 52.4790349,19.2342762 52.4790349,20.6272879 L52.4790349,25.7975042 C52.4790349,27.3512479 52.8004992,28.1013311 53.1487521,28.7442596 L58.185025,28.7442596 C57.9171381,27.8602329 57.4349418,26.922629 57.4349418,24.7259567 L57.4349418,20.2254576 C57.4349418,17.6269551 56.7384359,16.5554077 53.6041597,16.3946755 L53.6041597,16.3410982 C56.6044925,16.1803661 57.4349418,14.3319468 57.4349418,12.6442596 L57.4349418,10.6351082 C57.4349418,7.15257903 54.6489185,6.02745424 51.5950083,6.02745424 L45.7282862,6.02745424 L45.7282862,28.7442596 L50.7109817,28.7442596 Z" id="Shape"></path>
                <path d="M71.1239601,14.0640599 L71.1239601,9.67071547 C71.1239601,6.64359401 68.4450915,5.51846922 65.4983361,5.51846922 C62.5515807,5.51846922 59.8727121,6.64359401 59.8727121,9.67071547 L59.8727121,12.5103161 C59.8727121,17.7341098 66.4091514,16.9572379 66.5163062,24.2437604 C66.5163062,24.8866889 66.4091514,25.7439268 65.6590682,25.7439268 C64.908985,25.7439268 64.8018303,24.8866889 64.8018303,24.2437604 L64.8018303,19.7432612 L60.0334443,19.7432612 L60.0334443,24.9670549 C60.0334443,27.9941764 62.7123128,29.1193012 65.6590682,29.1193012 C68.6058236,29.1193012 71.2846922,27.9941764 71.2846922,24.9670549 L71.2846922,22.9846922 C71.2846922,14.6266223 64.7750416,16.7429285 64.6410982,10.3672213 C64.6410982,9.72429285 64.7482529,8.86705491 65.4983361,8.86705491 C66.2484193,8.86705491 66.355574,9.72429285 66.355574,10.3672213 L66.355574,14.0372712 L71.1239601,14.0372712 L71.1239601,14.0640599 Z" id="Path"></path>
                <rect id="Rectangle" x="73.3206323" y="6.02745424" width="4.76838602" height="22.7168053"></rect>
                <polygon id="Path" points="86.4202995 4.76838602 89.956406 4.76838602 89.956406 0.750083195 77.687188 0.750083195 77.687188 4.76838602 81.1965058 4.76838602 81.1965058 28.7442596 86.4202995 28.7442596"></polygon>
                <polygon id="Path" points="99.1985025 28.7442596 99.1985025 25.5028286 95.0194676 25.5028286 95.0194676 17.7341098 99.0109817 17.7341098 99.0109817 14.4926789 95.0194676 14.4926789 95.0194676 9.29567388 99.1985025 9.29567388 99.1985025 6.02745424 90.2510815 6.02745424 90.2510815 28.7442596"></polygon>
                <path d="M107.476206,19.7432612 L107.476206,24.2437604 C107.476206,24.8866889 107.369052,25.7439268 106.618968,25.7439268 C105.868885,25.7439268 105.76173,24.8866889 105.76173,24.2437604 L105.76173,10.39401 C105.76173,9.75108153 105.868885,8.89384359 106.618968,8.89384359 C107.369052,8.89384359 107.476206,9.75108153 107.476206,10.39401 L107.476206,13.9836938 L112.244592,13.9836938 L112.244592,9.67071547 C112.244592,6.64359401 109.565724,5.51846922 106.618968,5.51846922 C103.672213,5.51846922 100.993344,6.64359401 100.993344,9.67071547 L100.993344,24.9938436 C100.993344,28.0209651 103.672213,29.1460899 106.618968,29.1460899 C109.565724,29.1460899 112.244592,28.0209651 112.244592,24.9938436 L112.244592,19.7700499 L107.476206,19.7700499 L107.476206,19.7432612 Z" id="Path"></path>
                <polygon id="Path" points="119.075707 28.7174709 119.075707 17.8680532 120.790183 17.8680532 120.790183 28.7174709 125.665724 28.7174709 125.665724 6.00066556 120.790183 6.00066556 120.790183 14.2515807 119.075707 14.2515807 119.075707 6.00066556 114.200166 6.00066556 114.200166 28.7174709"></polygon>
                <path d="M146.400166,3.85757072 L146.828785,3.85757072 C147.33777,3.85757072 147.739601,3.6968386 147.739601,3.29500832 C147.739601,2.94675541 147.471714,2.70565724 146.909151,2.70565724 C146.668053,2.70565724 146.507321,2.73244592 146.400166,2.75923461 L146.400166,3.85757072 Z M146.373378,6.02745424 L145.462562,6.02745424 L145.462562,2.14309484 C145.810815,2.08951747 146.3198,2.0359401 146.962729,2.0359401 C147.712812,2.0359401 148.034276,2.14309484 148.302163,2.35740433 C148.543261,2.51813644 148.703993,2.81281198 148.703993,3.18785358 C148.703993,3.67004992 148.35574,3.96472546 147.900333,4.12545757 L147.900333,4.17903494 C148.275374,4.31297837 148.462895,4.60765391 148.596839,5.14342762 C148.730782,5.7327787 148.811148,5.94708819 148.891514,6.1078203 L147.927121,6.1078203 C147.819967,5.97387687 147.739601,5.62562396 147.605657,5.14342762 C147.525291,4.74159734 147.284193,4.55407654 146.801997,4.55407654 L146.373378,4.55407654 L146.373378,6.02745424 Z M143.989185,4.01830283 C143.989185,5.75956739 145.30183,7.12579035 147.043095,7.12579035 C148.730782,7.15257903 150.016639,5.7327787 150.016639,4.01830283 C150.016639,2.27703827 148.730782,0.884026622 146.989517,0.884026622 C145.30183,0.884026622 143.989185,2.30382696 143.989185,4.01830283 M151.00782,4.01830283 C151.00782,6.21497504 149.239767,7.9562396 147.016306,7.9562396 C144.792845,7.9562396 142.998003,6.21497504 142.998003,4.01830283 C142.998003,1.82163062 144.792845,0.107154742 147.043095,0.107154742 C149.239767,0.107154742 151.00782,1.82163062 151.00782,4.01830283" id="Shape"></path>
            </g>
        </g>
    </g>
</svg>